<?xml version="1.0" encoding="UTF-8"?>
<!DOCTYPE svg PUBLIC "-//W3C//DTD SVG 1.1//EN" "http://www.w3.org/Graphics/SVG/1.1/DTD/svg11.dtd">
<!-- Creator: CorelDRAW X6 -->
<svg xmlns="http://www.w3.org/2000/svg" xml:space="preserve" width="42.8624mm" height="42.8624mm" version="1.1" style="shape-rendering:geometricPrecision; text-rendering:geometricPrecision; image-rendering:optimizeQuality; fill-rule:evenodd; clip-rule:evenodd"
viewBox="0 0 563 563"
 xmlns:xlink="http://www.w3.org/1999/xlink">
 <defs>
  <style type="text/css">
   <![CDATA[
    .str0 {stroke:#2B2A29;stroke-width:9.18663;stroke-linecap:round;stroke-linejoin:round}
    .fil2 {fill:none}
    .fil0 {fill:#D997BB}
    .fil1 {fill:url(#id0)}
   ]]>
  </style>
  <linearGradient id="id0" gradientUnits="userSpaceOnUse" x1="9.81132" y1="50.5514" x2="425.187" y2="523.399">
   <stop offset="0" style="stop-color:#525358"/>
   <stop offset="1" style="stop-color:#C9D6CF"/>
  </linearGradient>
 </defs>
 <g id="Слой_x0020_1">
  <metadata id="CorelCorpID_0Corel-Layer"/>
  <g id="_1420962464">
   <circle class="fil0" cx="281" cy="281" r="281"/>
   <path class="fil1" d="M130 141c-190,61 44,129 44,205 0,76 50,82 78,93 28,11 35,-18 83,3 48,21 96,-7 115,-30 19,-23 45,-66 6,-66 -39,0 -66,-13 -35,-49 31,-36 -8,-102 -82,-88 -74,14 -119,-96 -209,-67z"/>
   <path class="fil2 str0" d="M61 360c0,-46 37,-76 81,-76l10 8 -10 63 14 15 14 -15 -10 -63 10 -8c8,0 16,1 24,3 12,-29 42,-47 76,-47l10 8 -10 63 14 15 14 -15 -10 -63 10 -8c11,0 21,2 31,5m25 14c9,8 16,17 21,28 7,-2 15,-3 24,-3l10 8 -10 63 14 15 14 -15 -10 -63 10 -8c45,0 81,30 81,76l0 22c-8,0 -19,0 -32,0m-23 0c-96,0 -266,0 -387,0m95 -222c31,0 57,25 57,57 0,31 -25,57 -57,57 -31,0 -57,-25 -57,-57 0,-31 25,-57 57,-57zm252 0c-31,0 -57,25 -57,57 0,31 25,57 57,57 31,0 57,-25 57,-57 0,-31 -25,-57 -57,-57zm-126 -44c31,0 57,25 57,57 0,31 -25,57 -57,57 -31,0 -57,-25 -57,-57 0,-31 25,-57 57,-57z"/>
  </g>
 </g>
</svg>
