<?xml version="1.0" encoding="UTF-8"?>
<!DOCTYPE svg PUBLIC "-//W3C//DTD SVG 1.1//EN" "http://www.w3.org/Graphics/SVG/1.1/DTD/svg11.dtd">
<!-- Creator: CorelDRAW X6 -->
<svg xmlns="http://www.w3.org/2000/svg" xml:space="preserve" width="42.8624mm" height="42.8624mm" version="1.1" style="shape-rendering:geometricPrecision; text-rendering:geometricPrecision; image-rendering:optimizeQuality; fill-rule:evenodd; clip-rule:evenodd"
viewBox="0 0 763 763"
 xmlns:xlink="http://www.w3.org/1999/xlink">
 <defs>
  <style type="text/css">
   <![CDATA[
    .str0 {stroke:#2B2A29;stroke-width:12.456;stroke-linecap:round;stroke-linejoin:round}
    .fil2 {fill:none}
    .fil0 {fill:#D997BB}
    .fil1 {fill:url(#id0)}
   ]]>
  </style>
  <linearGradient id="id0" gradientUnits="userSpaceOnUse" x1="82.0104" y1="46.3933" x2="674.308" y2="720.643">
   <stop offset="0" style="stop-color:#525358"/>
   <stop offset="1" style="stop-color:#C9D6CF"/>
  </linearGradient>
 </defs>
 <g id="Слой_x0020_1">
  <metadata id="CorelCorpID_0Corel-Layer"/>
  <g id="_1121451840">
   <circle class="fil0" cx="381" cy="381" r="381"/>
   <path class="fil1" d="M269 167c138,67 199,-95 282,-14 116,113 -16,132 32,226 1,2 51,37 82,83 39,60 -18,232 -123,147 -137,-112 -329,7 -410,-133 -33,-56 64,-73 -25,-155 -54,-50 -7,-236 162,-154z"/>
   <g>
    <path class="fil2 str0" d="M500 411c21,-1 40,8 54,22 5,-5 11,-10 17,-13 11,-6 24,-10 37,-9 106,3 71,154 -54,201 -18,-7 -34,-16 -48,-26 -84,-61 -96,-172 -6,-175z"/>
    <path class="fil2 str0" d="M469 236c0,153 -233,153 -233,0 0,-153 233,-153 233,0zm29 175c-30,-27 -72,-43 -118,-43l-54 0c-92,0 -167,61 -167,156 0,29 138,34 249,27"/>
   </g>
  </g>
 </g>
</svg>
