<?xml version="1.0" encoding="UTF-8"?>
<!DOCTYPE svg PUBLIC "-//W3C//DTD SVG 1.1//EN" "http://www.w3.org/Graphics/SVG/1.1/DTD/svg11.dtd">
<!-- Creator: CorelDRAW X6 -->
<svg xmlns="http://www.w3.org/2000/svg" xml:space="preserve" width="42.8624mm" height="42.8624mm" version="1.1" style="shape-rendering:geometricPrecision; text-rendering:geometricPrecision; image-rendering:optimizeQuality; fill-rule:evenodd; clip-rule:evenodd"
viewBox="0 0 183 183"
 xmlns:xlink="http://www.w3.org/1999/xlink">
 <defs>
  <style type="text/css">
   <![CDATA[
    .str1 {stroke:#2B2A29;stroke-width:2.99366;stroke-linecap:round;stroke-linejoin:round}
    .str0 {stroke:#2B2A29;stroke-width:2.99751;stroke-linecap:round;stroke-linejoin:round}
    .fil2 {fill:none}
    .fil1 {fill:#A9B3AF}
    .fil0 {fill:#D997BB}
    .fil3 {fill:#2B2A29;fill-rule:nonzero}
   ]]>
  </style>
 </defs>
 <g id="Слой_x0020_1">
  <metadata id="CorelCorpID_0Corel-Layer"/>
  <g id="_918376992">
   <circle class="fil0" cx="92" cy="92" r="92"/>
   <path class="fil1" d="M58 46c6,13 13,28 22,14 5,-8 63,17 72,31 20,33 20,71 -26,56 -14,-5 -45,-20 -54,-11 -10,8 -23,3 -34,-9 -10,-12 1,-32 -13,-45 -16,-15 16,-73 34,-35z"/>
   <g>
    <path class="fil2 str0" d="M127 36l18 0c2,0 5,2 5,5l0 55c0,2 -2,5 -5,5l-107 0c-2,0 -5,-2 -5,-5l0 -55c0,-2 2,-5 5,-5l80 0"/>
    <line class="fil2 str1" x1="89" y1="100" x2="89" y2= "147" />
    <g>
     <g>
      <path class="fil3" d="M72 146l2 2 0 0 0 0 0 0 0 0 0 0 0 0 0 0 0 0 0 0 0 0 0 0 0 0 0 0 0 0 0 0 0 0 0 0 0 0 0 0 0 0 0 0 0 0 0 0 0 0 0 0 0 0 0 0 0 0 0 0 0 0 0 0 0 0 0 0 0 0 0 0 0 0 0 0 0 0 0 0 0 0 0 0 0 0 0 0 0 0 0 0 0 0 0 0 0 0 0 0 0 0 0 0 0 0 0 0 0 0 0 0 0 0 0 0 0 0 0 0 0 0 0 0 0 0 0 0 0 0zm19 -21l-16 23 -2 -2 16 -23 2 2zm0 0l-2 -2 0 0 0 0 0 0 0 0 0 0 0 0 0 0 0 0 0 0 0 0 0 0 0 0 0 0 0 0 0 0 0 0 0 0 0 0 0 0 0 0 0 0 0 0 0 0 0 0 0 0 0 0 0 0 0 0 0 0 0 0 0 0 0 0 0 0 0 0 0 0 0 0 0 0 0 0 0 0 0 0 0 0 0 0 0 0 0 0 0 0 0 0 0 0 0 0 0 0 0 0 0 0 0 0 0 0 0 0 0 0 0 0 0 0 0 0 0 0 0 0 0 0 0 0 0 0 0 0z"/>
     </g>
     <g>
      <path class="fil3" d="M107 146l0 0 0 0 0 0 0 0 0 0 0 0 0 0 0 0 0 0 0 0 0 0 0 0 0 0 0 0 0 0 0 0 0 0 0 0 0 0 0 0 0 0 0 0 0 0 0 0 0 0 0 0 0 0 0 0 0 0 0 0 0 0 0 0 0 0 0 0 0 0 0 0 0 0 0 0 0 0 0 0 0 0 0 0 0 0 0 0 0 0 0 0 0 0 0 0 0 0 0 0 0 0 0 0 0 0 0 0 0 0 0 0 0 0 0 0 0 0 0 0 0 0 0 0 0 0 0 0 2 -2zm-19 -21l2 -2 16 23 -2 2 -16 -23zm0 0l0 0 0 0 0 0 0 0 0 0 0 0 0 0 0 0 0 0 0 0 0 0 0 0 0 0 0 0 0 0 0 0 0 0 0 0 0 0 0 0 0 0 0 0 0 0 0 0 0 0 0 0 0 0 0 0 0 0 0 0 0 0 0 0 0 0 0 0 0 0 0 0 0 0 0 0 0 0 0 0 0 0 0 0 0 0 0 0 0 0 0 0 0 0 0 0 0 0 0 0 0 0 0 0 0 0 0 0 0 0 0 0 0 0 0 0 0 0 0 0 0 0 0 0 0 0 0 0 -2 2z"/>
     </g>
    </g>
    <path class="fil2 str1" d="M55 93l-11 0c-2,0 -3,-2 -3,-3l0 -43c0,-2 2,-3 3,-3l95 0c2,0 3,2 3,3l0 43c0,2 -2,3 -3,3l-75 0"/>
    <g id="_918377664">
     <g>
      <polyline class="fil2 str1" points="53,81 73,65 96,80 130,54 "/>
      <circle class="fil0 str1" cx="73" cy="65" r="4"/>
      <circle class="fil0 str1" cx="96" cy="80" r="4"/>
      <circle class="fil0 str1" cx="130" cy="54" r="4"/>
     </g>
     <circle class="fil0 str1" cx="53" cy="82" r="4"/>
    </g>
   </g>
  </g>
 </g>
</svg>
