<?xml version="1.0" encoding="UTF-8"?>
<!DOCTYPE svg PUBLIC "-//W3C//DTD SVG 1.1//EN" "http://www.w3.org/Graphics/SVG/1.1/DTD/svg11.dtd">
<!-- Creator: CorelDRAW X6 -->
<svg xmlns="http://www.w3.org/2000/svg" xml:space="preserve" width="42.8624mm" height="42.8624mm" version="1.1" style="shape-rendering:geometricPrecision; text-rendering:geometricPrecision; image-rendering:optimizeQuality; fill-rule:evenodd; clip-rule:evenodd"
viewBox="0 0 146 146"
 xmlns:xlink="http://www.w3.org/1999/xlink">
 <defs>
  <style type="text/css">
   <![CDATA[
    .str0 {stroke:#2B2A29;stroke-width:2.37715;stroke-linecap:round;stroke-linejoin:round}
    .str1 {stroke:#2B2A29;stroke-width:2.37749;stroke-linecap:round;stroke-linejoin:round}
    .fil2 {fill:none}
    .fil1 {fill:#A9B3AF}
    .fil0 {fill:#D997BB}
    .fil3 {fill:#2B2A29;fill-rule:nonzero}
   ]]>
  </style>
 </defs>
 <g id="Слой_x0020_1">
  <metadata id="CorelCorpID_0Corel-Layer"/>
  <g id="_918375232">
   <circle class="fil0" cx="73" cy="73" r="73"/>
   <path class="fil1" d="M40 29c14,8 23,27 41,16 18,-11 31,5 43,16 12,12 10,60 -22,42 -32,-18 -47,29 -75,9 -28,-19 0,-32 -8,-49 -8,-17 7,-43 21,-34z"/>
   <g>
    <g>
     <path class="fil2 str0" d="M60 72c10,-13 23,-21 43,-22 -1,23 -12,37 -29,47m-10 5c-2,1 -4,2 -6,3l-11 -11c1,-2 2,-4 3,-6"/>
     <path class="fil2 str0" d="M102 50c0,6 -1,11 -3,15l-13 -13c5,-1 10,-2 15,-3z"/>
     <circle class="fil2 str1" transform="matrix(0.976545 0.976545 -0.976545 0.976545 82.7458 69.6432)" r="6"/>
     <circle class="fil2 str0" transform="matrix(0.417492 0.417492 -0.417492 0.417492 82.7457 69.643)" r="6"/>
     <g>
      <path class="fil2 str0" d="M48 78l13 0c0,0 0,0 0,0l-9 9c0,0 -1,0 -1,0l-13 0c0,0 0,0 0,0l9 -9c0,0 1,0 1,0z"/>
      <path class="fil2 str0" d="M74 104l0 -13c0,0 0,0 0,0l-9 9c0,0 0,1 0,1l0 13c0,0 0,0 0,0l9 -9c0,0 0,-1 0,-1z"/>
     </g>
    </g>
    <path class="fil2 str0" d="M89 120l-57 0 0 -52m0 -10l0 -16 17 -17 65 0 0 95 -13 0"/>
    <polygon class="fil2 str0" points="49,25 49,42 32,42 "/>
    <g>
     <path class="fil3" d="M60 41l0 2 0 0 0 0 0 0 0 0 0 0 0 0 0 0 0 0 0 0 0 0 0 0 0 0 0 0 0 0 0 0 0 0 0 0 0 0 0 0 0 0 0 0 0 0 0 0 0 0 0 0 0 0 0 0 0 0 0 0 0 0 0 0 0 0 0 0 0 0 0 0 0 0 0 0 0 0 0 0 0 0 0 0 0 0 0 0 0 0 0 0 0 0 0 0 0 0 0 0 0 0 0 0 0 0 0 0 0 0 0 0 0 0 0 0 0 0 0 0 0 0 0 0 0 0 0 0 0 0zm37 2l-37 0 0 -2 37 0 0 2zm0 0l0 -2 0 0 0 0 0 0 0 0 0 0 0 0 0 0 0 0 0 0 0 0 0 0 0 0 0 0 0 0 0 0 0 0 0 0 0 0 0 0 0 0 0 0 0 0 0 0 0 0 0 0 0 0 0 0 0 0 0 0 0 0 0 0 0 0 0 0 0 0 0 0 0 0 0 0 0 0 0 0 0 0 0 0 0 0 0 0 0 0 0 0 0 0 0 0 0 0 0 0 0 0 0 0 0 0 0 0 0 0 0 0 0 0 0 0 0 0 0 0 0 0 0 0 0 0 0 0 0 0z"/>
    </g>
    <g>
     <path class="fil3" d="M60 35l0 2 0 0 0 0 0 0 0 0 0 0 0 0 0 0 0 0 0 0 0 0 0 0 0 0 0 0 0 0 0 0 0 0 0 0 0 0 0 0 0 0 0 0 0 0 0 0 0 0 0 0 0 0 0 0 0 0 0 0 0 0 0 0 0 0 0 0 0 0 0 0 0 0 0 0 0 0 0 0 0 0 0 0 0 0 0 0 0 0 0 0 0 0 0 0 0 0 0 0 0 0 0 0 0 0 0 0 0 0 0 0 0 0 0 0 0 0 0 0 0 0 0 0 0 0 0 0 0 0zm37 2l-37 0 0 -2 37 0 0 2zm0 0l0 -2 0 0 0 0 0 0 0 0 0 0 0 0 0 0 0 0 0 0 0 0 0 0 0 0 0 0 0 0 0 0 0 0 0 0 0 0 0 0 0 0 0 0 0 0 0 0 0 0 0 0 0 0 0 0 0 0 0 0 0 0 0 0 0 0 0 0 0 0 0 0 0 0 0 0 0 0 0 0 0 0 0 0 0 0 0 0 0 0 0 0 0 0 0 0 0 0 0 0 0 0 0 0 0 0 0 0 0 0 0 0 0 0 0 0 0 0 0 0 0 0 0 0 0 0 0 0 0 0z"/>
    </g>
   </g>
  </g>
 </g>
</svg>
