<?xml version="1.0" encoding="UTF-8"?>
<!DOCTYPE svg PUBLIC "-//W3C//DTD SVG 1.1//EN" "http://www.w3.org/Graphics/SVG/1.1/DTD/svg11.dtd">
<!-- Creator: CorelDRAW X6 -->
<svg xmlns="http://www.w3.org/2000/svg" xml:space="preserve" width="42.8624mm" height="42.8624mm" version="1.1" style="shape-rendering:geometricPrecision; text-rendering:geometricPrecision; image-rendering:optimizeQuality; fill-rule:evenodd; clip-rule:evenodd"
viewBox="0 0 132 132"
 xmlns:xlink="http://www.w3.org/1999/xlink">
 <defs>
  <style type="text/css">
   <![CDATA[
    .str0 {stroke:#2B2A29;stroke-width:2.15811;stroke-linecap:round;stroke-linejoin:round}
    .str1 {stroke:#2B2A29;stroke-width:2.15811;stroke-linecap:round;stroke-linejoin:round}
    .fil2 {fill:none}
    .fil3 {fill:none;fill-rule:nonzero}
    .fil1 {fill:#A9B3AF}
    .fil0 {fill:#D997BB}
   ]]>
  </style>
 </defs>
 <g id="Слой_x0020_1">
  <metadata id="CorelCorpID_0Corel-Layer"/>
  <g id="_900197504">
   <circle class="fil0" cx="66" cy="66" r="66"/>
   <path class="fil1" d="M87 26c-24,12 -34,-16 -49,-2 -20,20 3,23 -6,39 0,0 -9,6 -14,14 -7,10 3,40 21,25 24,-19 57,1 71,-23 6,-10 -11,-13 4,-27 9,-9 1,-41 -28,-27z"/>
   <g>
    <g>
     <path class="fil2 str0" d="M107 62l0 6m0 5l0 19c0,4 -3,7 -7,7l-68 0c-4,0 -7,-3 -7,-7l0 -31"/>
     <path class="fil2 str0" d="M26 34c0,-4 3,-7 7,-7l12 0c0,5 0,9 0,14 0,5 0,9 0,14 -7,0 -14,0 -21,0l1 -14"/>
     <path class="fil2 str0" d="M66 27c-7,0 -14,0 -21,0 0,5 0,9 0,14 0,5 0,9 0,14 7,0 14,0 21,0 0,-5 0,-9 0,-14 0,-5 0,-9 0,-14z"/>
     <path class="fil2 str0" d="M87 39c0,3 0,13 0,16 -7,0 -14,0 -21,0 0,-5 0,-9 0,-14 0,-5 0,-9 0,-14 7,0 14,0 21,0l0 7"/>
     <path class="fil2 str0" d="M24 56c0,13 21,13 21,0"/>
     <path class="fil2 str0" d="M66 56c0,13 -21,13 -21,0"/>
     <path class="fil2 str0" d="M66 56c0,3 1,5 2,7m4 3c6,2 15,-1 15,-9"/>
     <path class="fil2 str0" d="M109 56c0,13 -21,13 -21,0"/>
     <path class="fil2 str0" d="M87 55c7,0 14,0 21,0l-2 -21c0,-4 -3,-7 -7,-7l-12 0"/>
    </g>
    <path class="fil3 str0" d="M88 80l8 0 0 7c-5,4 -13,4 -16,-2 -2,-4 -1,-11 3,-14 4,-2 10,-2 12,3"/>
    <path class="fil2 str1" d="M67 99l0 -11m0 -6l0 -11c0,-1 -1,-1 -1,-1l-27 0c-1,0 -1,1 -1,1l0 28"/>
    <rect class="fil2 str0" x="34" y="99" width="37.5228" height="4.61435" rx="3" ry="1"/>
    <rect class="fil2 str0" x="38" y="104" width="28.6258" height="4.61435" rx="2" ry="1"/>
   </g>
  </g>
 </g>
</svg>
