<?xml version="1.0" encoding="UTF-8"?>
<!DOCTYPE svg PUBLIC "-//W3C//DTD SVG 1.1//EN" "http://www.w3.org/Graphics/SVG/1.1/DTD/svg11.dtd">
<!-- Creator: CorelDRAW X6 -->
<svg xmlns="http://www.w3.org/2000/svg" xml:space="preserve" width="42.8624mm" height="42.8624mm" version="1.1" style="shape-rendering:geometricPrecision; text-rendering:geometricPrecision; image-rendering:optimizeQuality; fill-rule:evenodd; clip-rule:evenodd"
viewBox="0 0 164 164"
 xmlns:xlink="http://www.w3.org/1999/xlink">
 <defs>
  <style type="text/css">
   <![CDATA[
    .str0 {stroke:#2B2A29;stroke-width:2.67114;stroke-linecap:round;stroke-linejoin:round}
    .fil2 {fill:none}
    .fil1 {fill:#A9B3AF}
    .fil0 {fill:#D997BB}
   ]]>
  </style>
 </defs>
 <g id="Слой_x0020_1">
  <metadata id="CorelCorpID_0Corel-Layer"/>
  <g id="_919015360">
   <circle class="fil0" cx="82" cy="82" r="82"/>
   <path class="fil1" d="M55 32c20,23 6,26 21,21 14,-5 29,-10 34,4 10,32 46,-3 35,41 -5,21 -12,19 -28,19 -15,0 -23,26 -43,19 -21,-7 -37,-24 -34,-36 3,-12 23,-13 -10,-23 -33,-10 6,-67 26,-44z"/>
   <g>
    <path class="fil2 str0" d="M62 67l-34 0c-5,0 -8,4 -8,8l0 31c0,5 4,8 8,8l7 0c6,9 17,13 27,11 -5,-2 -9,-5 -11,-10 0,0 0,0 0,-1l33 0c5,0 8,-4 8,-8l0 -21"/>
    <path class="fil2 str0" d="M43 97c-7,-8 -6,-19 4,-19 3,0 5,1 7,3 1,-1 1,-1 2,-2 1,-1 3,-1 5,-1 14,0 9,20 -7,27 -2,-1 -5,-2 -6,-3"/>
    <path class="fil2 str0" d="M80 38l55 0c5,0 8,4 8,8l0 31c0,5 -4,8 -8,8l-7 0c-6,9 -17,13 -27,11 5,-2 9,-5 11,-10 0,0 0,0 0,-1l-33 0c-5,0 -8,-4 -8,-8l0 -31c0,-5 4,-8 8,-8z"/>
    <g>
     <path class="fil2 str0" d="M84 63c-1,-1 -2,-3 -2,-5 0,-4 3,-7 7,-7 4,0 7,3 7,7 0,4 -3,7 -7,7"/>
     <path class="fil2 str0" d="M114 54c1,1 1,2 1,4 0,4 -3,7 -7,7 -4,0 -7,-3 -7,-7 0,-4 3,-7 7,-7 1,0 2,0 3,1"/>
     <path class="fil2 str0" d="M132 61c-1,2 -3,4 -6,4 -4,0 -7,-3 -7,-7 0,-4 3,-7 7,-7 4,0 7,3 7,7"/>
    </g>
   </g>
  </g>
 </g>
</svg>
